<svg preserveAspectRatio="none" width="100%" height="100%" overflow="visible" style="display: block;" viewBox="0 0 620 470" fill="none" xmlns="http://www.w3.org/2000/svg">
<path id="Vector" d="M466.763 32.3157C461.189 29.8304 455.481 27.4795 449.639 25.2628C460.451 38.2268 465.554 55.5568 460.853 76.9843C459.913 81.619 458.167 86.0523 455.817 90.2841C455.616 90.0825 455.481 89.8139 455.28 89.6124C454.877 90.8886 454.407 92.0977 453.937 93.3739C441.246 112.585 413.378 125.078 370.066 115.675C304.326 101.434 255.037 136.968 233.213 161.015C225.625 169.344 218.978 179.554 214.613 190.301C202.593 220.192 209.308 254.181 267.393 264.391C286.8 267.816 311.847 268.622 343.945 265.734C331.052 268.689 319.032 270.839 307.683 272.249C222.335 283.064 181.843 252.031 169.555 210.52C160.221 178.815 167.339 140.998 183.656 111.241C186.477 106.136 189.566 101.233 192.856 96.5981C212.665 68.7223 239.727 44.608 272.228 26.6734C291.164 16.1948 315.003 6.58936 337.297 0.812683C321.986 -0.127707 327.627 0.00663414 309.966 0.00663414C269.878 0.00663414 231.602 5.85049 196.415 16.3291C81.4535 50.7877 0 135.691 0 235.037C0 324.575 66.1432 402.426 163.31 442.057C167.07 443.602 170.831 445.08 174.725 446.49C174.591 446.356 174.524 446.222 174.457 446.087C163.646 433.056 158.475 415.793 163.176 394.299C168.951 366.826 199.235 343.719 253.963 355.608C319.703 369.849 368.992 334.315 390.816 310.268C403.373 296.431 413.512 277.556 414.318 259.554C415.863 226.305 385.645 195.944 280.017 205.549C371.006 184.592 420.966 203.735 443.529 237.455C470.053 277.019 458.637 336.532 431.039 374.618C399.747 418.816 350.122 453.543 289.62 469.127C289.284 469.194 288.948 469.328 288.68 469.396C295.731 469.731 302.848 470 310.034 470C363.351 470 413.58 459.79 457.362 441.788C554.26 402.023 620 324.374 620 235.037C620 145.7 558.423 73.1555 466.696 32.3157H466.763Z" fill="var(--fill-0, #FAFAFA)" fill-opacity="0.08"/>
</svg>
